<mxfile host="Electron" modified="2024-02-16T05:49:35.044Z" agent="Mozilla/5.0 (Windows NT 10.0; Win64; x64) AppleWebKit/537.36 (KHTML, like Gecko) draw.io/21.2.8 Chrome/112.0.5615.165 Electron/24.2.0 Safari/537.36" etag="R_xKh5u8rVm0em8e2DPV" version="21.2.8" type="device">
  <diagram name="Page-1" id="2XWkQP5S-hDbL94sL5Vg">
    <mxGraphModel dx="2298" dy="1180" grid="1" gridSize="10" guides="1" tooltips="1" connect="1" arrows="1" fold="1" page="1" pageScale="1" pageWidth="3300" pageHeight="4681" background="#999999" math="0" shadow="0">
      <root>
        <mxCell id="0" />
        <mxCell id="1" parent="0" />
        <mxCell id="APLwThIm-aDqV8bCMrbt-1" value="FileDialog" style="rounded=0;whiteSpace=wrap;html=1;fontSize=25;fillColor=#dae8fc;strokeColor=#6c8ebf;" parent="1" vertex="1">
          <mxGeometry x="1298" y="140" width="650" height="60" as="geometry" />
        </mxCell>
        <mxCell id="yXZNNCGTaTEeKvymnkUV-1" value="" style="shape=image;verticalLabelPosition=bottom;labelBackgroundColor=default;verticalAlign=top;aspect=fixed;imageAspect=0;image=data:image/png,iVBORw0KGgoAAAANSUhEUgAAAogAAAIHCAYAAAAcr623AAAAAXNSR0IArs4c6QAAAARnQU1BAACxjwv8YQUAAAAJcEhZcwAADsMAAA7DAcdvqGQAAFS7SURBVHhe7d0LYBTlvf//TwIEuQuIF1QkhKs3vAuiVlGoKIgXVLTtoV4qtF5qaW2rnnIo51RrbalV8aBVW9p/ld85Vo9VSwsqatVqtVoUUUHuEOR+J5Drf76z8yQzm91NsiSbZPN+4eM888zszOwmmXzyPDO7OccdP7hCvgpVBLWwikSNDSWT+wpkfo8AAKCpywmmGZWTub3mJNhXrCnW7gXE4xNmwGqN3jxhKoxXA42jEf6OAlqUDP6ORkbwBXVi+S/6eiQLijnHHnd85NdNJBgmDIWJexoBAADQ9IR7Bp34YFhtPhwQK8NhXDCs0zDzfqTH9B8JAADQckXjXZxQ+IsPi+FgGKm7gOhCYDgMJqunVtv1mohGONxm9goBANBsVUWeDGrCO00aCOPqOccce1xlXqkKgbFh5NatW6tDhw7Ka9NGeW3z1Cq3lVvqT5EmXj4AAGqvUQJX9vDinj8tLStTcfE+r5Roz549Ki0t9cJgbA3//+GQ6AJifA9ip44d1aVLF23dukV79+7Vvn37VFJS4i8DAABA89KmTRu1bdtWBxxwgLp1665t27dr586d/jIXDiunFhDjw2H37t38+ob16wmFAAAAWcbC4sGHHKLWrVprw8aNfls4JObGh8OOHTuqorxCa9esIRwCAABkIct4lvVsmLlTp45+WzgT5oYbWrdupQO7dNGGDev9eQAAAGQvy3x2SaFlQOMyoRcQq9Jih/YdtGXrFnoOAQAAWgDLfFu2bFF7LwO6cGjZMNevBw1t8tr4N6QAAACgZbDsZ+9Y4/MyocXC2BBzrEVt89qqeN8+fw4AAADZz7JfXl6eV6t6I8OcQYOODjoRK3TUUb20+LPPYkuS6Nips//+iHVlF0Hu2rkjmAMAAEBT0X/AAK1cucq/g9nuZc4Z6AVEvzvR+3dUr6O0eHHqgHjvz+9XQd++wVxi7jbptV9scqPX2r1js374vduUm+t3WgIAAKCJ6N/fC4irVsbeVNtCogVE6z200vuomgPiI79+QmefNSyYq7033npb1034qlq1it0lAwAA0NBOPvlk9evXr7LzKp7lnyVLluif//xn0NI0jBkzWv/4x7tavz7xO8sccsghOu3UU/X8Cy8ELfvHAuKKlV5AtHCYTkB87Inf6ogjCvR/f1uinNyKWGllpVwXDu6rQw/pol27dvvr2sf0/fHN5X49v9OelAHx0ksv9d/Z21m0aJEWLFgQzFVnL8wZZ5yhZ599NmipkmpZKuecc44OO+ywYC7mlVdeqfziDB48WEcffbSeeuopfz6Rvn37+t+Ic+bMCVoAAEBjGT9+vP872T5aLhH7ZJHRo0dr9uzZQUvTYFlm6NCh+vvf/14tJKZalq74gFjn8V5/XDqnlZZv36UVO3dq5Z4dWr1vu9aUbFNJSbkXNL0S/HNa5ZUFtdQsjFn4spIqHDYkC6buGN59910NHz7cD4bGjilVOAQAAE2LhR0Lh/Z2LonKrl27/HWaGgt+FgAtCFogdBoiHCZS54BYVh4Lfj26t1VOXqm2l+7Qxr2btb4o+JiWqlzoO6DrXrU/KHFqb+o+//xzPyT26dMnaAEAAMiM+JCYqXBo6hwQXf77ZP0aLd+2TttKt6pIO1Wcs8tvrwhCuH+Ro6fDgbvUvmNsWTqs9+7qq6+uLDaEm8iQIUMq18nPzw9aY8LbsKFsx+ruccm2ayHRDX3bOqNGjaqsu21acb2M8WzYOrxemG3LtdtxuG0DAACYcEjMVDg0aQ0xmyIvELZpV6I2B5SoddtitfGKz0uQLhyagT2OVN8Da9cDZ8O5LjBZSrYQ5q75s2JD0Keeemqkq9VYOLNrB9164WsZbRs9e/asXLZs2TI/jDm2rrVbEEzG3kAyfp+2vtumHVeiXkbbT7t27SrXs+FrF1DdMbhlXbt29ecBAGiq3O/omgqaPy8gWp9grF8wfN1gTfxg6JU2ba2EAqKXDcNb6du1wC+1Eb4G0dLxQQcdpOXLYze5GGtbt26dDj300KAlxsKVBT/nk08+CWryt3HggQdWftNa4AyHsfC6yViITJTWXQ+gBdtEbD92Z5Tjrqu0sBm/LFwHAKApcr+jayqoP+Fh5fBwc32ryoCxXFjnHkQnFg5jwTDPpnmxgGh3Q1dFxAoVl5SoqKh+P75v9+7YXdJhidocC5nhb9y63GFsvZPbtm0L5qpYOCwsLPS3Z8G2LlzY3Llzpz8FAACIFw6Hlh2sNGRIDKt7QMyR9u0r0ukHFeiUrv10Uuf+OqHDIB3f7hi/PbZKbIjZsmJ5ebnKvJKOTZs2Ra4ntBfDhpLjh4NtCNjeWsYZNGhQUKu+jbqwcGg9ju+//37QEuVCabLtb926NXJctj33WddFRUWR4wyvBwAA6od1XNlb2STTvn37oHOraYkPh06mQmLOwEGDvNelwg9z9lF7SxYvDhYlNvPXv9F55wzTnt27Kq80zMm19za0bZSrdes8/9NSSsvKVOYVC4jmvQ8+qvF9EN96663Ii2BcSHOst87WsRcl/F6H1qNnQ8nGegwtSLpldr1fOMS591iM32f8+yBamAu/l6Jdz+je4zB8XDbsbUPGtm54HRPeZvz2bP/uekk7ZtsG758IAED9abZvlD16tP7xbg1vlH3aqXr++fp5o+x+/fsHH7Xn5Trvf3UOiDfd+h2dcMIJwVx1Fg6tWDi07TofLvhQ90//GZ+kkoQFTguIr776atACAACQGfsdEG1d1ytYVxYcm+KbUTYFdrNLTZ8eAwAA0BD2OyCifsQPndsQ89tvvx3MAQAAZA4BEQAAABHxATHtt7kBAABAdiIgAgAAIIKACAAAgIhc+9ATu/7Q3sew8gNQAAAA0HIEWdDPhF6hBxEAAAARBEQAAABEEBABAAAQkTNw4KCK8mDA+aheR2nu3L/GlgAAAKBFGDnyy1q5aqVXy1Eu74MIAACAeAREAAAARBAQAQAAEEFABAAAQAQBEQAAABEERAAAAEQQEAEAABCRW/nxy5UVAAAAtDhBFrQJPYgAAACIICACAAAggoAIAACACAIiAAAAIgiIAAAAiCAgAgAAIIKACAAAgAgCIgAAACIIiAAAAIggIAIAACCiMiDySXsAAAAtVzgL0oMIAACACAIiAAAAIgiIAAAAiCAgAgAAIIKACAAAgAgCIgAAACIIiAAAAIggIAIAACCCgAgAAIAIAiIAAAAiclXBh+wBAAAg4GVDehABAAAQQUAEAABABAERAAAAEQREAAAARBAQAQAAEEFABAAAQAQBEQAAABEERAAAAEQQEAEAABBBQAQAAEAEAREAAAARuf4nMfufx1zh/wMAAEDLEsuAXvEzIT2IAAAAiENABAAAQAQBEQAAABEERAAAAEQQEAEAABBBQAQAAEAEAREAAAARBEQAAABEEBABAAAQQUAEAABARFVA5FP2AAAAWq4gC9qEHkQAAABEEBABAAAQQUAEAABABAERAAAAEQREAAAARBAQAQAAEEFABAAAQAQBEQAAABEERAAAAEQQEAEAABBBQAQAAECEHxDtM/f4KGYAAICWK5wH6UEEAABABAERAAAAEQREAAAARBAQAQAAEEFABAAAQAQBEQAAABEERAAAAEQQEAEAABBBQAQAAEAEAREAAAARBEQAAABEEBABAAAQQUAEAABABAERAAAAEbnt2+fJlbw2rYNmAAAAtBTt2+WpW9cOlYUeRAAAAEQQEAEAABBBQAQAAEAEAREAAAARBEQAAABEEBABAAAQQUAEAABARCwgVnj/eQUAAAAtUzgL0oMIAACACAIiAAAAIgiIAAAAiCAgAgAAIIKACAAAgAgCIgAAACIIiAAAAIggIAIAACCCgAgAAIAIAiIAAAAiIgGxwj5zDwAAAC1QVQ6kBxEAAAARBEQAAABEEBABAAAQQUAEAABABAERAAAAEQREAAAARBAQAQAAEEFABAAAQAQBEQAAABEERAAAAETk7tlTrD1FxSoq2qeS4rKgGQAAAC2FZcGt23Zry9ZYyY197h6fwQwAANBiVUbBWIUhZgAAAEQQEAEAABBBQAQAAEAEAREAAAARBEQAAABEEBABAAAQQUAEAABABAERAAAAEQREAAAARBAQAQAAEJFrn6hSwaftAQAAwM+DFfQgAgAAIIqACAAAgAgCIgAAACIIiAAAAIggIAIAACCCgAgAAIAIAiIAAAAiCIgAAACIICACAAAggoAIAACAiFw+YQ8AAADuY5ftI5jpQQQAAEAEAREAAAARBEQAAABEEBABAAAQQUAEAABABAERAAAAEQREAAAARBAQAQAAEEFABAAAQAQBEQAAABEERAAAAERUBkQ+kxkAAKBlc3mQHkQAAABEEBABAAAQQUAEAABABAERAAAAEQREAAAARBAQAQAAEEFABAAAQAQBEQAAABEERAAAAEQQEAEAABARFxD5wD0AAICWpyKSAulBBAAAQAQBEQAAABEERAAAAEQQEAEAABBBQAQAAEAEAREAAAARBEQAAABEEBABAAAQQUAEAABABAERAAAAEQREAAAAREQCIp/EDAAAAHoQAQAAEEFABAAAQAQBEQAAABEERAAAAEQQEAEAABBBQAQAAEAEAREAAAARBEQAAABEEBABAAAQQUAEAABAhBcQ7QP2+JA9AACAliqaBCvoQQQAAEAUAREAAAARBEQAAABEEBABAAAQQUAEAABABAERAAAAEQREAAAARBAQAQAAEEFABAAAQAQBEQAAABEERAAAAETEAqL/AXx8HjMAAEDLFsuD9CACAAAggoAIAACACAIiAAAAIgiIAAAAiCAgAgAAIIKACAAAgAgCIgAAACIIiAAAAIggIAIAACCCgAgAAICIXD5hDwAAAJW8bEgPIgAAACIIiAAAAIggIAIAACCCgAgAAIAIAiIAAAAiCIgAAACIICACAAAggoAIAACAiJx+/fpXeGT/evfurZfmzQsWAUD9Ki4u1urVq1VUVKSysrKgFal06dJFPXv2VF5eXtACAPXv/BEjtGLFSuXkeOHQ/hEQAWSChcPFixfroIMO8ktuLgMYNSkvL9eWLVu0YcMG9e/fn5AIoMHEB0TO0AAyorCwUIcccogOPvhgwmEt2etkYbp79+5+zysAZEpu5Ucx85nMABrQ9u3bdeCBBwZzqAsLiTYsDwANywuDQR7kz3gAGdOqVaughrqw141rNgFkEgERAAAAEQREAMgorucB0PQREAE0nqJV+tvv7tF3J31DE2/7kR56fpG2rXpUI/p8Vc9tC9ZpTNv/qdn3/1z33XdfZfnvV9YGC5NY80jy4y96TbcMGKp7Py0PGgCgaSIgAmgURQsf1sUDT9D1f1ijA48+QQO7bdW8x/5Pnzel7NRqs15+8HG9tny1fxexlQ27ar4WMFUfYUUF4RBA00dABJB5e97UlKv+U8Xff0sf/XWGfnTrTfrOlIf03HN36pTWwToq1a51y7Rs/R7FR6ryok1atWyZCreXVAtjSZeV79O2tcu0fN0OlYQWlO5cp+XL12lHSdAQr7yzzvr2/XrggQf88h8X9woWpD6OsJLta7V85QbtLg0aQqrtv7xYe3bvVWmZd7wbN2lXgscAQEMjIALIuO2vPq7/bX2D7v7GQLUN2iJyt+i5SUM19ILROrvf4Roy9R3t8Rfs0b9+NVp9jzhe54+9SKf3OUKnf3eeNtW0bONfdOvQ/jrly5fpolOO11VPrvMad+uD6aPUt+8ZGn3RUG96kWYsKra1q7EPE4hKdRxhO/X2f31JvfoM1YWjz9GJF0zXZ63caTfJ/gt/o4uPv1wTx5+gAYMu0UOL6XEEkHkERAAZVqH1n34mHXOSeif7YJD1H6n4qhf14YJFWvTseG2ZNUvveAmx+P2f6tpfHKBpH6zU4o8+0crPfq1BT0/UlFd2ply28pmf68X86Xpn4b+0aO0SPXn5wSr+4D7dMKO7pi9Yqo8XLdGr396l+6c9Xz3ktVqvZ28brQsvvFAXXnC1fvV+ccp9hRV/8HN9878P0n0fLtcnHy3S+/cN1IY1scCXcv9bF2rPJX9V4abX9f2BnKYBZB5nHgCZlyOVl5ZWGzqu1P0MXXL2wbaaOg88WQXarC17pVVvvKZd535do3u18VfLPegcXTWitT54d5VWplh2yBlf1uHzbtKF192vl1aUqO0BrbTqb69oy4Hb9eTNV2rcuKv1o1d2qejzT/RFtfHsHhr6tW/qxhtv1I2TrtGQg73HpthX+OGr33hVW8+8WqMOj73/Y8cTR+nMQ/1q6v23G6wLz++lVt4pmg+dAdAYOPUAyLAc9TzuWOW+8xe9tz1oipfTWq3de2rneCHJr1SoorxcpcXFkRCWa8u9FZIvy1Hb427X/M/n6ruHz9dNJwzUNf9bqPKycuX2Ol/fuOmbmjRpkr552736/f1XqGfw2EoVuep5yhhdcsklXhmj04/ITbkvC7UxFSotKVVuXp4X9AKl+7TPv6awIvX+8zqpc8KxdwDIDP+8a1fXpLrAGgDqU8ezb9bNvV/QLd+cpU/3uLNPqbZ8+onWJr1JOEdHDhmmDq/+Ts+vit25Ub7pNc1+qZXOOLOPeiVdlq8da1drV5fjdeV/PqNn7uqlD+Z+qC4nnaxW772jXUefq/PPP1/nn3u8DjvkIHWr8c/mVMeRHwqIOTrsuGNU/urTen2TRckKbXrt/+mlL2LLDk97/wDQQILTsU04FQHIvLzj9N1n/1f/tnmahh56kA7Pz9eRBx+igV//H61L8dfqAUPu0mO37NSdxx+uAccdraMG3azCSb/RlKHtUi7b/Oy/qeCQvjr+hEEacX+eJkw6S4d86d/1wGWf6hsDjtCgE45Xn8NP0+2v7wj2FFKV+Cql2ldY5/Om6L7z/qGvD+yrY44bqOG/bqUTj4qddjvUdv8A0Ahy+vbrX2F36FnJz++tl+bNCxYBQP1ZsGCBjjvuuGDOqVDxtnVau3G3crv01OE9Oqh1+T7t2VuhvPYHqLWFM3vbl6JytfHm2wRhrWzXeq1aX6QOhx6pgztEP9858bIy7dm0Vl/sztNBhx2qzpU3x3j737pGq7dIXQ7rqYPaR7dlj9u3e6+XCDuobfwiT8J9ldnxexm4fdvY8atcu9ev0PryHup1WAeV7ylSeV4HHeC/nU+C/fuPDz3/wEcffaTBgwcHcwBQv84fMUIrlq9QTo534vEKARFARiQOiKgtAiKAhhQfEBliBpARrVq1UllZzZ9Cgup43QBkGgERQEa0a9dOmzZVfytp1Gzr1q3q0qVLMAcADY+ACCAjjjzySG3evNkPifSI1Y69TuvXr9eGDRvUs2e1N+ABgAbDNYgAMqa4uFifffaZH3rsnIPUWrdurW7dumnQoEHKy0v2sTMAsP+4SQUAAAAR3KQCAACAlAiIAAAAiIgGRC4JAgAAaHm8DBiOgfQgAgAAIIKACAAAgAgCIgAAACIIiAAAAIggIAIAACCCgAgAAIAIAiIAAAAiCIgAAACIICACAAAggoAIAACACAIiAAAAIgiIAAAA8LnPYyYgAgAAIIKACAAAgAgCIgAAACIIiAAAAIggIAIAACCCgAgAAIAIAiIAAAAiCIgAAACIyOnbr3+FR1bye/fWSy/NCxYBaErsZxQAgIYwYsRILV+xQjk5OX6hBxHIEPeHWLqlsVWsna9Hpj+u178IGkzFGs2f+Qv97p2tQUMa1jyiEflf1f9tC+YbQPmyOXpoxhx9XhI01FUGjhEAmhIvINIrATS0phDw9ldO7nL96Zd/0sqcoMHk7NUHv39I8zc27b81c1st1TO/eUs7/cNco2e+faluf2GLvyz7tbTnC2D/VdCDCDS0TIXDcG9jwxQ7Zdj/ou3+vu2fzZft1dY1S7WscLuKy6vWKdlRqGXLCrW9uKqtqrjtlmhn4VIt/WK3ysLLy4u1fe1Sfb56s/aUhtrj91W2T7t3FamkPLad5Rv2qLxyO+4Yy1Veuk9rFnykwqKd2rGnJLROVSkv2qLVS5dq9da9wfIajtErZXs2aqX3mLXbiqPbrO1rkvL4XSnV3t07VVQSaivZo51FVc8jut3aPV8KhUKxEkZABBpQ/A9cuuJ/iBOVRrfxL7p1aH+d8uXLdNEpx+uqJ9d5jbv1wfRR6tv3DI2+aKg3vUgzFhXH1g/L3aLnJg3V0AtG6+x+h2vI1He0x9p3varvnZKvweeN07jhx6rfOdP0991ee2Rfx8X2VfhbXXz8pfrG1UM0ZORoDSs4Qmf99APts+10Hql7Hv668rVED154nu7+oFAv3Hqmjh3zgBZHXrpiLZ51jY7udYzOu+wSnX3MBbp/SbBCsmP0/v+vX41W3yOO1/ljL9LpfY7Q6d+dp022KNFxJntNUh2/U7Fcj1x4tK54sjBoKNNHv/iyhn13vnYm2u7Hi2p4vgCQGAERaCD7E9qaXPirhZXP/Fwv5k/XOwv/pUVrl+jJyw9W8Qf36YYZ3TV9wVJ9vGiJXv32Lt0/7flYeApb/5GKr3pRHy5YpEXPjteWWbP0jqWv8q66+LGPtPST9/XBwhd1/a5Z+u3fd8Xt63N/X76Ni1R29Z/10Ufedp65QusefVxv23a69tPppxbowFb9detf5+uuE3vq4pkfaOVLkzUgNGRetuh+ff2uzbr59eX67F8faunSpzWhZ7BCkmMsfv+nuvYXB2jaByu1+KNPtPKzX2vQ0xM15ZWdCY8z5WuS7PidnL667Nrj9cn/zNUa+94oXqD/mb1VX/7qmWrrbfd6b7u/+NfnWvjxYs2/dafu/89PdPVfXtGdJ3jP97/f14p531F/vyeVQqFQoiUeARHYD4l+yFxJR308tiFL4v34jTr0jJHqOe8mjbrul5q3vFh5bXO18vWXtaXLdj1585UaN+5q/cgLTUVLFumLsug21P0MjT2rh7+dTgNOUoE2a3ORt6zTIOVvn627rr1Y55zxNf1mxV7t3lWccF/+droO0ZgzY9vpbNsp36iNtp1gP1VFat2qdbX2FS//WRvO+aauHpDnz6ttN3VtH1uW7BhX/u1V7Tp3gi46Mra9nO5f0pUjWuv9f6zSwXV8TWpz/IdfdK1O/exJvbiyQrv/8Xv9X5vx+rdTDtAqb7tbve0+dctVuuKKazRl/i5vu59ofbn/ZVPr1m1iFQCoBQIi0IjCv/itxItfnqo0uLyO6lC+WZt2hfZVuktbd7RRly5tlXfs7Zq/ZK6+e/iruvnEQfrK/xaqvKxcuUedpxu+NUkTJ07UpG/fq9/96godFjy8Uk5rL7C5em7liWnTn76h4Te9qSOumaYn5jytH5zczm8P7+sWf182dOvJ9bbjHpzbSq3qdIarUGlJicrKy+1qw+oSHqP32nvrlxYXK8hhvlxb7q3QttpxVn9NJt76U826/wodajv1jr9VTvA1zYkdf/zXuaLb+bp2xGY9+8I/9NpTb+nIa6/SoFbl/nZzvO1e/82JuvHGG6PbpdeQQqHUUPwzRWi+TqdPAOkL/+C5Ei/V8vhlGS9dT9XwgUv1/z32prb5N1uUaePLv9b/7jpD5x/TVtvWrNLOzsfqih8/rT/eeaTen7tAnU86Wbnv/UM7B52j8847T+edc5wOO7i7uroQ5Jf45+fmS7X2o0/U5ktf19fOO1699r6n+Qt3eQsU2dfT/r7+pR1Jt+PmXclR69Zl2rNnb1y7dMRppytv/u/0pxUlflv5zjVauy22LLotN+89ZsgwtX/193p+ZewxZRtf1f97KVdnnNlb26sdZ/XX5Pxzj1fPQ7qrW63Pxp105lfP1canH9Cv3+ypq8f2UY73r6e33Vbedncdfa7OP//80Hbt+ZarqCh2NWPVc6BQKJSqEo+ACGRAoh8+J9kPaLg9fll9it9P0qJe+tov/11Hzr5IR/XMV8FRh6nvV9/VBTPu1gVdKrT52Qnqd1g/DT7xaI38VZ7+beKZOvisO3X/pZ9o4qBeOvrEwSo48nR9/7Udcdv1nps3tRKdz1X/iy5Vt9mX6+hjj9XAi55RTr8O3tLyhPvqmHQ7wXxlOVRDzztEL900TMeOuV+fhe4sPmDoj/T4pO2684QjNeD4Y9V7wL/p6U3Wo5h8221Pu0O/vmmn7vIeM/D4Y9T7mFtUeOMT+vfTD6jba5JiH+74XGl78td0+d45+vDkazXqkFhb+6SvdfT5NoebVOKfL4VCyUwJy+nbr5/fZv/jk1SA2ov/YUom0XrJHluXdRtN+T5tXbdGW8o669DDe6iDG3ZVmfZsKtT6PW3U/dBD1TkvaPaCTvHWtVqzVep86GE6qH3lA2LK9mnP3grltT9Are1+kPJi7SkqVxtvvo03X753i9Zt2KeO3jY7lO1WSeuOatcmwb4SbGf3nlJvO+387UR5j99YqK1tDtHhB1YeaKXSneu1ZnOJOh3SU93beX9H13CMpmzXBq3eUKQOhxyhHpUvijvOPO84D0n9miTcR1ni4y/+QD8eNkHbfvF3/fLsDkGjSfZap36+LVmT+/kCMsw+NcVccMEorVi5MvgkFQIiUCd1/WWSaP34ttqsY+q6bzQPdfu6lmrPjh1a/exNuuz3w/TcX29W37i8jaaNn2PUhgttmTRq1IUERCAddTmxJ1o3vq2u8yZRG+pX036NV+nxK0Zp+qbh+vET0zUunzuTw/j5ANJ30UWjCYhAOmr7yyd+vbrMJ6ub+PmWpCU/9/rGawkgEQuIK1etCgXEvl5AtMuhvf/n984nIAJJ1PSLNdHycFv88mTLalNvrrLhOSSTzc8N1fH1RrZww9mjR4/RypUrrYGACNRWql8GiZbFt4Xnw/Xy8qp3z0u0TrLHNbamdCypNJfjzFa8/kDzcfHFY+lBBGpS219sidYLt8UvD8+7cJho/fipCdfrU0Nttz41h2NMVzY/NwDNx9ixlxAQgZrU5pd2onXCbcnq8cEw0Xo1TRtbUzmOmjSX40xHNj+3bMbXrf64oVHUj0svvdQLiKsJiEAqtTmJx68Tno+vu+Lm92eaTE3Lm4JMH2NzeE3Slc3PLZN4HZEt9jcwX3bZ5fQgAjWp6ZdG/PLwvKvbNFk92bQ2bfWtobabSCb3la50jzHTz605vJaZxmsC1J0LluPGXaFVq+lBBFKq6RdNeHl83c2Hp4na3LSu9frWENtMJt19NYdjzLTmcpzpyObnBjRVV155lVav8QKi98//j4AIVJfqF1R4WXzdzYenyepuGt+eqLhlqdS0PJl0H5dJmTzG5vB6GL5ujSubn1s2299h2Gw2fvzV9CACNUl28q/pbWmMq9s0VT3RfLISXq++NcQ2k8nkvkw2P7d0NYfjbC6vJZANXGi++uprtHrNGgIikEyyX07WHl7m6sna4uuJ5l0J39mcrLjlyaRaVt8yuS+T7v7SeVwm99UYmsNxNpfXMh3Z/NzSRa9e43Kv/1e/+jWt8QKipUMCIpBAohO4tYXbXT1ZW3zdSm1CYKoS7r1MxNZJR7qPS0c2H2O6sn1/6WgOx5iubH5umUawrB/udZwwYYJWr1nrz1cFRO8b1kp+PgERLVuik7f7+XAS1cPTcN1CnWsLt8eX+PXi58OlvqWzzXSPoyGOP5VMPrd0ZXp/6WgOx2h4LVsWAmL9cK/jtddepzVr18RuUvEQEIGQ+JO3+9kIc/OJpq6eKhimCn+2LNVyK8mkWpZKuo9LR6aPsTk8t3Rl83NLV3M4zubyWmYrQmV17jW5/vobvIAY9CBaOwERqBI+ebufizA3n2i9VMUkC37xoTB+vbKyMv/xbj6ZVMvqW7r7ag6Py+TraDK9P/v+ypRMP7dMyubnhsbXGEF24sSJWltYSA8iEC98wnf1cJuJb3fT+FBnwvNWEgW/RMus7kqi7SSTalkq6Twuk/sy6T7OvYZ1keljTFcm95fp55au5nCczeW1zFb0IFbnXpNvfvNbsYBIDyIQ5U7c4RN4uG7C67h6ONwZVw8Xt44LfonabRoOja7Er5+MLU9HOo/L5L4Mz63+pPoeqm+Zfm7paA7HCNTG/obfW265RYWF62xDBETAcb8k4n9ZhOfj13G/aG0+VbH14kNe/NQFQ6sbm7oSXtdKMqmWpZLO49xx1lW6j8vkc0t3X+nK5HNLV6Zfk3S/TwDUnQuW3/72bVr3xReWDwmIgON+BuKF21zdrZuouOX2Cy4c6lzdTcOBMNWyRO3JpFqWSjqPs2NKRyaP0TSH55ZpmTzO5vCa8HVrWbJ5iHl/n9vkyZO1bt0XtiECImDc938i4XZXd4HNuMeGS3ywc/VwiW+Ln9+3b5+2bdumoqIiv4SHnpNJtSyVdB6X7r7Slcn9NZfnls2vSSZl83ND89UYQfaPf/yjtu/YEdyiQkAE/ECWSPgXh6u7n5VkxYW9cN2FvkTzido2b97s/RW3Tn996XWtXrtOa9Z+oW3bd/j7bzzxJ6va/FLd3xNceB+ZP1kCLVuyn/FkP4u1OSc0Rc3huN0xutc+M8ecG0yBFsnCWV3Y+ske49rdOlbCITA8n6jNegnXrl2rV179m35y38OaM+81LVy0uAmGQ2NtDR3awtvPzAkRgJPs5zvZz2JDnw8aSnM97oZHQESLZeGsNtx64fVduHPCgc+4erikCoZWtmzZorfeflePPPGUNm7a7G+nabDnVPVco+zkmqzUh/reHoDaS/bzl+h8kOwcgf3XOOdAAiJaJAtoqYSXu0CX6DHWZiHP1d18oiBodWN1Fwqt2PzevXv9YeVn/jTXX6dp4hcA0HLVJiQimxAQ0eK4oFYbFt7CXOhLVHfTcN0FQ5u6YOjarLiQuH37dv+aw6bVc5hI7V87AM1Fuj/X9jhXmjPXQxcuTVlmjpWAiBbFhbdU3DrhdeMfFw55bplrc/X4dcLFBUOr23p79uzxb0gBgKarqQenlqphvi4ERLQYFsZqK9m6LuCFuZAXrrv1wsWFxnAwtLpN7a1sVq9prIBY179Ca/86AmgO6vLzX9fzBZorAiJaBAtk+8uCXDxrc9t2QdAVtyxct6kVFwzD89t37PS3k0znTu3UvWvHOhd7XO1w4gdQW5wrsh3vg4isZ9/bqcQvt8BmXLv7+Ygvtl647orNuwAYDoKlpaWRtvD0888/1/fuusffXzK/vO+/VNC3IJhLzL256tovNnnH4Ve1e8dmTb7935Wb2yrWUKmuJ/j415FfEEDLlvrc2rw1t+dW/8dLDyKymoW1urDAFi9+Gy4UOm7etdk2wm1Wwm1Wd8WFRGuvyYFdOumYgf1SlqMH9PXLiC8N0chzYqXHQd0TbD+dcGePcY8jHAJA01H/52QCItBMtGqVq5WrNuhXf3hTDzz1hh78f3/TQ0+/rhnPvqrly9aoaPdObVz/hV/27Nqp3//1Q79UcQEv8Ynk+q9fo7XLFlSW/5r6Q7/9+T/+vrIe07jhcOE/X0t4nMmcfupJ/mMSSbUMAFoyAiLQTNjHp+fktNLy7bu0YudOrdyzQ6v3bdeakm0qKbFeSK8E/5xWeWVBLTULWdOm/ECH9xlcWQYfd0ywtOm57KprK4/z36f+NGgFkDk1j3o0b+E/qBv3j+LGQkAEmomy8tjwd4/ubZWTV6rtpTu0ce9mrS/a6LfnxJ2vD+i6V+0P2hPMpXbtv13th62wMZd/LagBgGMnmmwOh8meX8sLiQREtGju2jx3fWAy4fUcq4evLTTheVdcm03DdTd11yHWxO35k/VrtHzbOm0r3aoi7VRxzi6/vSI4f1lPo+lw4C617xhblor1Hr7/QXgoOjE3pPvGK88HLTHh4V4bjg5Ltuw3j/4qYXt4+LimoeN44W1aseHjRMLrTfrGhKA1Jrws/DztuNwyG4oHWqbk58jskarHsGWFRAIi0Ey4U1ORFwjbtCtRmwNK1Lptsdp4xeedu104NAN7HKm+B/YJ5lLbtHlLUEvM9TBaObBL58qQ5Aen3z1Vuaxr1wP9IJVqmQW3U08+obLd9VRaIPvlg49Utl8yZpTfnsgz/+83lUHOtmdhMrzNKdPu9deJF7/eQd27BUtiy2zeLVvy+bJISHXLHv/tk0EL0NK0rIDU0vkBsSX8TQA0b1UnZj8YeqVNWyuhgOitEv5Z7tu1wC+1EQ5KiVjQc5avWKX83r0qe+jC1wDaev369km57J133/fn43sibZt2HaQLfhYok/XWha9BtO3Z9ZL/9/ycYKn8EGfHGf/4+PX+66e/DGqxZSedeHzl/keef07kOszwukDLZeeilhwUW85zpwcRaPKiJ6RYOIwFwzyb5sUCog1ZV0XEChWXlKioaG8wn9zzL871g1F92bp1W1Crzi079uQv+YHRglh4iNmFPlf2t7du4cefBrUqFhyTCfd4WuE6TCCZZEGpJQTIlhESCYhAkxY6EXnVffuKdPpBBTqlaz+d1Lm/TugwSMe3O8Zvj60SW9+yon99Yy2ubbQeOLsGMf7tXuKvJ4znegLDw7A2FL3go49TLnMs/FlPoPUcGgtubni6rmy74SFp6zm0oXB3HI4NpdtxOP/+w+8EterbAFBXLSM4tRQERKCZsKw3aMCRmnju+Zr4pZH6xlmjdMNZF+v6YWM1cMARat++gw4+uIe6de+mNnlt/ICYm1u7E7b1lL37z39VDq9aCQ/FJmM9gRa43GPsuj03rJxsmQ0/uza7TtCuOzRnDh/jD+u6ZfGBNRXbbvj4baja9h/v2hu/7U/deuFrL20bFlLdMivckAKkYueXcEE28T9qr9y6G7zCR+0h28SGXZNzy+OnxtUtaMXXrVjdzbupuyPZFZt3beGP2gu3WX3ZsmX6wZT7/H0kc9st39CJJyQfCs7NzfWLbc8dr/lwwULd98sZym3VOmgBgEyoOg9ln6b63OrvuAiIyGrhoJSILQ+vE1+3EOfqxuatuGU2teICX3iZC4SpgqEVq69YsUI//I+f+/tIxn8jbNt+HU8A/htse8ExJ4cBAwCZYOeo+B7Fup23mr6m+nzq77j4jQE0ExbwrBewVas2dSr2GMIhgMxhuDkb8FsDAAA0MEJjc0NABAAAGeBuZsmGsNgUn0P9DnsTEAEAABBBQAQAAKiz7B42JyACAAAgIteNWNu0rm+fATRn7i1qnPh6eN64t7Ax4WXx7VaszYSnbr3w1NWtAED2s3NdNp3vmlIvYv0eCz2IAIAMsl9idflFVtf14+3v44GWiYAIAGgEdQ1u+xvyCImNLxtHSsLPyX1PZ8f3Wk5B334VbogrP7+3Xn7ppWAR0PylGrp13/dOfD283Kbh4eBw3X06iquH28KfpuLabGol/Gkq/iep/PCH/r4AAGhs9CACAAAggoAIAACACAIiAAAAIgiIQA3ctYZOuG7XFBprC9fdfHjqltl8uLhrEwEAaCoIiAAAAIggIAIAACCCgAgAAIAIAiIAAAAiCIgAAACI4JNUkNXc3cOJuO97J76erNgdx65udyC7qWt3dybHF9fuPkElPF25cqXuvPPOYO9AYmeccUZQA5BN3nrrraBWO5k4FxAQkdXs+zqZ+LeWCa/rlllbuO7mbWrhLjy1dleszRULgOE2m3fh0M2vWrVKd911l78fIBn7pVDXXyQAmrZ0fq4zcS5giBkAAAARBEQAAABEEBABAAAQQUAEAABABAERAAAAEQREAAAARBAQAQAAEEFARItk71uYTG2W2fsaGjdv03Cx5eFpfLt7THg5UB/GDdurDx7YpKWPbtLnj2zSkpmbtXjmFs3/yQ4d3j363p8AkAwBEQCyyC2jd6tTW/sDJFcVauUVb1rRSj27Sb/7TpE6teOPEQA1IyACWaht27Y68cQTlZeXF7Q0LjsOOx47rmx3zDHHaN68ef60MVgQ9EOhV8orcvxwGKvnesty9M7P92rRjL36+KF9WvhQsVdK9dGDpZoztVwXDwk2AqDFIyACWaZz58763ve+p6uvvlq9e/cOWhuXHYcdjx2XHV+2slD4xz/+MTLNvFiPYXl5jpcUvXBoPYleUav2OqDXWB142t068JSp6nrqXep20vfU7cSb1f2EiRo8/Ou6986Lg23Uv+9+97v67LPP1Ldv36Al1lZYWOiXRx55JGhtOuxYP/zwQ118cd1eF1t/0aJFdX4cmjb7eLtp06bpiSee0NNPP+3XjzzySL/Y93JTdOihh2rcuHF+ufDCC+vUaUBABLKIha9bbrlFXbp00UsvvaTFixcHSxqXHYcdjx2XHV82hkQXCv/+97/78wsXLmyUkNj+5JnqeMZT6nTG79Vp6OPqPOS/1eX0B9Tl5Glq2+MEqWSzVLrFm3qldLtUtksq3+2VPerSsf5/JXTt2tX/zFgLSzt37gxaY+HL/mg4++yz/TJ06NCsCVR/+tOfdPTRR/tTZIcf//jHfjDcvn27/ud//kfTp0/X6tWr/aBoyyw8NjV2vj3uuOP870M7zjfffNNvqy0CIpAl4sPh3LlzgyVNgx1PJkLi+PHjde211yonJydoibF5a7fl9c2Fw7/85S+aMmWK3/ad73zHn890SMxRsbRvtVfWeGWtVFzolXVe2eAFwh1eENwnVXjrlHvFn3rzfgnmU5g4caJfnPj5RLZu3er/8rz++uuDlpixY8dq48aN+vzzz/1iwfqiiy4Klta/yy67zA+kzVFzPvZsYL2D9j182mmn6Re/+IX/c21/9NjUgmJTDIemXbt2KioqUmlpqT9v4dZ+5mqLgAhkgaYeDp1MhEQ7KQ4aNMgPLi4k2tTmrd2W16dwOLztttuC1hibz3hILC+KhT2/BMEvflrmlYqSqqBYuWxvsJHqXBB0Q8Hx83XVv39/rVq1KpiL9TL36tUrmKt/55xzjv/L/eabbw5aam/IkCFaunRpZCg8fvg5PJ/u0HQy+3Ps2D82fHzllVfquuuu044d3h9YIdZu5eOPP/YDY1OzZcsW/xzbp0+foKWKnYPt+zN+6Pmkk06qHJImIAIh8W83E5539URtjs27tkRvaRMuri38mHT98Ic/9H/g9+zZo5NPPll33HFH0hIfYuqbbT/Rfl2x47PjtOO1465vv/3tb7Vs2TL/pGghJjc315/avLXb8vp0//33JwyHjguJtl5GVAY+r4RDoNX9qc17YbDMC4N+KHQlmE+gvsNhY/jBD37gD7HdeeeddQpadmOVBbRTTjlFkyZN0llnnZXxofB0j725SnaTl7XZskz6xje+occee8wfTo5nof3yyy/3i9WbmuLiYv/c465DtKmxMGi9oa+99po/9Pz+++9X/nFmdWuzYWkCIpAFXE9Z69at/R/+VMUCU0Oy7Sfab7jYcZr4YeD6YGHbgosLiTbk68Khte9vGI9nvxxqCt223NbLiPIgFFYGwSAcWiD0p+FlLhxasTavJJAsGLr5+mThy/XWxd/Usj9sqM2O1/44sT9Uatt7vW/fPv30pz/1h8rtl+bKlSvVr1+/YGlmpHvszZX9vNj1fuGQaHVrq+lnrb7ZtaTWQ1gT62m84IILgrmmwzoh3njjDT9YWyi0kGijKFZGjBjhB8czzzyz8nvKhUn7OSQgAlngnnvu8a8vsfBl13LZRdPJil0z05Bs+4n264odnx2nHa8dd0MIh8T27ds3WDg08cNOydR2vf3megz90Od6EL2634NoU69Eeg+t7oo3n0R9h8T4IWU35GwhrKCgQD179tSAAQP86xPrg/1CtGO27wf7vkvn62E33FjPd6bVx7E3JxbIbEjXhUQXDq2tNmGtPtmNVbUJ5BYQrbexqbLzrd1Zbz9Xxv7ocDevuF5E+952N7U888wzBEQgG9gvjAcffNA/CZx//vkaOXJksKRpseOy47PjtONtyF90LiT+4Q9/8KcNEQ6bJNcT6IaUK4sLg97UhUgLi357aJ0U7HW04sTP18WSJUt0+OGH+z2EVuwu5hdffDFYGpXs+r5wvSb33nuvhg0bprvvvlsPPfRQ0FozG2J2N8/Y8HLHjh313HPPafPmzdq1a1dlb6LddNOhQwe/HtaYx96chUNiY4VDY0PL4Z7MZGydxji+VHr06FH5B42N7FjvoJ1zLRy2adOm2jW/9oeIu6mlU6dOBEQgWzT1kJjJcOhYKFywYEHLCYee7du2xsJeZPg4SYlbZ/UXu4OtNDzrpZg1a5Zef/11v1jd2hrKK6+84t+NWteAZUPM9j6eNuQ9c+ZM/zitV9OGnO3mI/dejhb0du9umNcv3WNv7lxIbKxwaOwaPusZTNWLaL2HN9xwg379618HLU2DnWvtDwsbMrY74e0SBfvetWsT7ZpWGz63ZVbs5pQNGzb4j7N17YMNcgr69vPOnbGL5PPze+vll17yVwCyQbJg4L7nw8JtbupuIgnXberqZWVlkTabd1P7Kyx+3rW5UlJS4i+3obUf/ehH/n72l53I3B3NdnF1U3gvRBs+tBNoJsNhY7FfFu+8845OP/30hBe27w97O42a7pa8+LQcTRqVq0O72htleyUnVxXlOaqQfapKbGpvYBF7A21vlWB+V5F0/59268X3vLAIoJKFc7u+0IJq/M+0nW/duxike6NKbX6u46XzmLoiICKr2fd1Iu57Pizc5qYW3uLrNnV1C3nhNpt308YKiMZOWvbWBS+88II/DNbYbFhu9OjR+vOf/5zV4dDYa2/X79hf4fX9XDPxSwFAdRYS7S1t7I9u6820n3MbVrbeRXvjbPf+p+loqgGRIWZkLRfs4tW2PTxvIc5x7a7NptYWLm6Zq7sSXu7mXYisTxZMZs+e3STCobHjsOPJ9nBo7DnaUHpLeK5AS2G9gzYUayMEFhavuuoqf5TGehX3Jxw2ZQREAACAGtjwsoVBe8sq+1Qmq2dzjz4BEQAAABEERAAAAEQQEAEAABBBQAQAAEAEAREAAAARBERkJXv7mLqIXz88H667t6NxbeGpK24d9zY28cXa4wsAAE0JAREAAAARXkB0vSNVvSQAAABouXIK+va1US9VVJQrPz+fj9pDVvC/qZNwy8LrWD0874Z9rc3qbpl96olrS1TcR+hZPf5j9dx8+CP3XH3t2rX6j//4D38fQDL28VoAsk86H7XX0AiIyErhsBfPLQuvY/XwvAU8Y21Wd8ss1Lm2RMWFQau7EOhKfCgM1wmIAICmhGsQAQAAEEFABAAAQAQBES1KeBi5NsLru7pNXXHi29yQs7E2q7vliepuXQAAmgICIgAAACIIiAAAAIggIAIAACCCgAgAAIAIAiIAAAAiCIgAAACI8AJiTlAFAAAA/I/a61cRe082PmoP2cG+n5MJL3P1RNP4En6/Qpvax+S5qbGpFVvuPkLPtcXXXQnP20ft3Xvvvf62AABobAwxAwAAIIKACAAAgAgCIgAAACIIiAAAAIggIAIAACCCgAgAAIAIAiJaDHtbmprYOm692k7trW3Cb4NjxbG2cHHrhetuCgBAU0FABAAAQAQBEQAAABFeQLShLYa3gKwz7jEtX768srxyx7HBggw49g69svwVZXKXjWOcHrPX97Fxwbxj7Q3w/N3X9JU7lHrTqfbfQMcGIKvQgwhkIwsS9/XRo2Py/Y/QzM8fo3kjns9cSFx4j4bnD9c9C4P5rOYFtj73qVpGrHdesLvvPL18u/f1HH6PWsRLC6DREBCBrHOs7viWBYlwQFuoe259VLrxNi9moL7Ne/hR9flWTb169WG5ln4aVAGgAREQgWxz7BiNyH9Zf3k6mHcWPq95y/uon59iYsOMjz32ipYvfywWGv1hYTccfUdkGHLcY7F2v1R2lQVDlXdUDWVX9VBWDWMee4ftI8HjQ/urPIYEzh42RLNnz05abHmj+/QePbzsRj2QrIc2wXO117Sq1zFu2NfWj3RJ2vL7dJ7ydePzodc5st3w9uJEvrb9gsZAwq9D9PsDQMtDQESLFn57mUT1RG8/Y23J1nV193Y34bewCb+tTbjulter5UuVuKMpXwUDg6pX77P0VuXn36CnLRA8f6OW2fBlfr5u1QgvjFR5+gY3VH27Xj7vW6Hr17zAUvCX2LLbX1Z+gh7KhfcMr3qs9+/2Gyy52v5GaJ4bAr9d+laScPX6m2/rqd8lDinWbsubgqdvuF3LbnwgwbV9iZ/r0395WeddELxa4y5Qn+XSiDGxBx87ZoSiXYVP6wb/9VvuXzYw3O8ajn7N8sc8qj73Jbq2MNXXNtXXoer7A0DLQ0AEslF+gSpzYER4iHK55j0fjEEf288LKI/q/qDXceE9D3thJKTyhhfrxQrzAot70NN/8R7jeiirG/fYffLSoRd1PLa/oDfM3+5953mHnPiIzXN/fqlaSLR5a286vBB3+zLdeFtcRE72XD9dquV9+vnD0uMu6KN5D8+zhOjNHyvLh5Vfm2T87YZ6ihfeo4dfDv8BEEj1tU35dQh9fwBocQiIQLbxh5LPk+ucquQPPS/Tkrr+zrchSMt21sOUP0aPLg/a68ILmPfpdvmdh5VeDrYZlOjCasIhsemFw8DT9+vRhDesJHiu9nXSCI05dpwu6DNPzz9t816wt6+TV8tcNqvb1wFAy0BABLLOQt3z8Ms6777wdX2xYUY9en+sBy/ewiValn+jXOfXsXd8q6qncGCB8t2QtR8y/dY68Pbtdx6G9mz78/aQbFg5GQuFDz94f9MMh77YzUB97gv1tCZ9rgv1vHUaPvAt9Zn3vDdn8310wW0F1n3ozdUg2G7lHwJekP/WeYmuPU3xtU3z6wAg+xEQgWz09A3+9WT3+cPCVvwuwODatURseNRCZWz9BzSvahjSesV0o5637TxQoGV17EG0oeXzvH+Vx+K/h5+3vzF2V/XzwfF5JekdFlFN5ZrDpBbeo1sj3azJn+tCS4he4HZDuTbf57w+tRzajW23T/A1W+5fSxgM4Uek+Nrux9cBQHbLKejbt8Iukrdiwwsvv9RU/zIHaifZTR/x7e773rEbRoxrjy/uhpKysrLITSZu3qauXlpa6tfd1NpKSkr8eVfccivr1q3Tz372M3//TYINKz9foIf9G1gAAC0NPYgAqhl3241Vw8oAgBaHgIisYr169cltL35qaqqHp67HMVyszfU82rRxHas7XgmGGL1y33kv63Y+rQMAWqxYQKz63QagRVqoe4aH7mRlaBkAWjR6EAEAABBBQAQAAEAEAREAAAARBEQAAABEEBABAAAQQUAEAABABAERLYK972Aq4eWunmqaqu7e89C1ualrD0/d+x+69QAAaApiH7VX7v1i8/7xUXto7pIFrUTt1ubaw3UX2lyQc8XNuze2dm1u3qbu4/PcfPgj9eyj9qwenrrl9lF7//Wf0/z9AgDQ2AiIyCoW2hJJ1G5trj1ct3Dnpq7dipu3QOfqLgi6qZV0A+LUqVP9/ebl5flTAED67Dy8v+wc3alTJ3Xo0EG7d+/Wvn37giXZjyFmAAAAROTyMXsAAAAIowcRAAAAEQREAAAARBAQ0WLZTSa15dYNPya+7ooTbnPtbuounrb5+riQGgCA+kRABAAAQAQBEQAAABEERAB10unBf6n9L9/XAT//pz/f+u53lfOf70g/9goAoAFcpJ+9+abe/NlFwbxj7bN108Bgth4REAHUSWlxmUpLylVWErueMlYv99sBAA1ltVb3ulPVMmIDISACqJPKQOiV2LwFxgq/AAAazt9+/6R6fe0mNUCHYTUERKAFyMnJCWr7r+SHp6rsrtNUMeU0f771f52hvHvO0AE/G+bPp2e8ZhW+oSmDg9kGkWwf1l6owlB5I7zS4Cl6I+Wx1f7YB095Q4WzxgdzZrCmvBHa9xtTvJao8bPijgdAy7V0hn6/6hpNTTKmfNHP3tSbNhQdGY4OhqEvukmzg2W2aOBNsyvXnR3e3sDYegREICT+7WjcNCzcZvXwuq5ub11jxebj6269cLH2hjJo0CANHTpUubn18+NePuVtld71lvb98E1/fvfkv2nnba9r+y2v+vPN0zLNHNVTPXtamaylk+ZUBbkF03RmzzM1bUFsNm1e0Jwxcq5GTZhdOf9G4RwVPOT265WbpLHh/OiZPWGU5o6c0cDhGUBz8eL379aqa6YmvO7wxe8P07BhVu7Wm8O+FlrnSF3zNWmqLbv7TQ27801N9f7563rzR15znRcjjRcmHz9Lf7t+WCggVv89CKCZs57Drl276uCDD9aQIUPqJSTa0LIbZp5w7XUqK60acn77H/+MlL+/856+7q3TvMzWhFEztWzEKMVltf0yeOxIae5ziuXMwZoyY5KWTu4plxd9XhidFp73LdC0h5Zq0uT6PBoAzdeL+v7dq3TNdQkuRrzoZ0Gv4J2Kjums1pNTZ+hTq774mt705v/2sj8XzPdSbwuTA3t7NS9MPk4PIpDVrHfy7bff1oYNG+otJFYGRC8YTpz4zVBgrP5XpgXUG711vvzlC4KWNPg9bVXDsJER2rghWrfMhmVdW3RIt5YWPKe5y0ZolP/Q8BBy4v1VCYarqy0YrFg+DLohB4/VyD7zNKdaGAyMnxUdbv5kqZYV9K+aB9CyvfiEnoy/YcWGhu+U7vZ7EK/Xk6uD9jp7098GARHIcjZ8XZ8hsf3Pz9SlH/9EH45v529n8bWd9fkNXbRs4oHBGlG2zpSp0zRi5JeDlrrwAtecWE+bPwQ7aqYKpofD2hyNnDuqcojW9cbNnhCs33Oy5o24uf6GZ8dP1qSlk6vtL8aOZ7pkxxpd4Bmkgj5LtTg8TL1sqT4JqjVasFhL+xR4WwEA86lmTH1Sve4M9RQWHKUjV6/UUqsPPE9nHem31s2nK7TK2+LXbhpIQARaAguJ7777rkpKSvyQ2K9fv2BJenocdJDGXTZWl10yRqOv+7I/tXLp2NGRqStXXH6JOnZoHzy6Dgb3V4FCPW0LpumheX1UYEkp6IV7KNHFgdYD5/fyTdeIoKnulmlpfIKznrwR0xPeNDJyRiysVsuGyaQKfLMnqOeZ04LhaPOJli4rUH+6EAE4n87Q1HA3ofUq6ho9bkPMU4/SqrR6EF/U969/UrrmcQIi0BJYL96pp56qNm3a+D2JS5YsCZakp2PHDurevbs69O2gQ587VJ17dVa3bt10kBccbWrLwlMrPXr0CB7dwGxI2u/Is16+UZq5LGivCz98xvX4Gf+GlZ66STPihpj7eGWZl/lq2ccXGcKujQQ9kABaEC+4DRuvGcFlg86nM8ZrWGX7p5oxPrhJZfz39f3xrj3+sTXMe8FzPEPMQPazcGjDytZzaOHQhpv3965pu/HFAt8RrY5Qp9s76bB2h/nbt4BoUyu23BWbt8fUmQ2tKhSkvPB384igRzEIWTfH9+YNKlAfN3zrBz2/tQ7csPYEJesMXDDtTI3ykmdBZZfeMs296UxNVuLexeo9gHbjyTyNmB53HaP3/KbYfPw1iNaTWpchaQDYTwREtHh2I0cqbnl4Pasnmq9NceGsrKzMr1tbQ7GbROo7HJoOHTpo7Nixuvjii3XlWVf6U1fGjBnjF1d37R07dgwenUwfTZpTdQNILGjF7igu8IKU3z5npOaOcsHNC1lnBm9JEzzGD1uzp2umJmmOtc0o8IKZv3INwvu+WUtHxV9fGKgcui7UnElLqw1vx96Sxjueau9nuEDPzZVGjg212jBy+Ln5xys9l2i/FnqXLg4NOQNAw8opKOjr/X6K/eLK75Ovl196KVgEND/JwlaidheU3DL3cxAuLsCF6y7YheetlJaWVi6zupsP1+0aQFcvLi6urK9fv17Tpk3zjyMvL8+f1hd7H0TrvauvcIg02dC3FwBvilxbWBt284v/wP1/L0agBamP852dozt16uT/Ubx7927t27cvWJL96EEEstwnn3yiv//974TDxrZgmm6aO1Jzqr83TkrjZ83RpKUPEQ4BZBQBEWgBrKcTjc+uXaz+Fjip+W/ZU8fHAMD+IiACAAAggoAIAACAiGhAZBQKAACgxaMHES1SomvyXFv81ITb4tvj28LCy9xNIjZvdy67OjePAACaGgIiAAAAIgiIAAAAiCAgAgAAIIKACAAAgAgCIgAAACKin8Wcn6+XX+azmNF82fdxIvHt7nve1Y27mzg8deu5uk3tDmRXd/PhYm3u85ddsXb7HGY3Dddt+caNGys/i9k+87N9+/bKzeXvNwCoKzsH79mzp14+N9nOzy31s5gJiMgq9n2cSHy7+553dWMnlfipW8/VbWrBztXdfLhYWzgcWrH22gbEHj16qF27dgREAEiDnYOLioq0devWoCV9dn5uqQGR30BACi48mnDdxC9z864eXm4nLJt30/By1+5YMCQcAkB6OIfWD15BAAAARBAQAQAAEEFABAAAyKBxw/bqgwc2aemjm/T5I5u0ZOZmLZ65RfN/skOHd6+65KgxERABAAAy6JbRu9WprV2DnqsKtfKKN61opZ7dpN99p0id2kWveW8MBEQAAIAMsiDoh0KvlFfk+OEwVs/1luXonZ/v1aIZe/XxQ/u08KFir5TqowdLNWdquS4eEmykgREQAQAAMirWY1henuMlRS8cWk+iV9SqvQ7oNVYHnna3Djxlqrqeepe6nfQ9dTvxZnU/YaIGD/+67r3z4mAbDYuAiBYt/FYziaYm/BY04XZj867UNJ+qAABajvYnz1THM55SpzN+r05DH1fnIf+tLqc/oC4nT1PbHidIJZul0i3e1Cul26WyXd4vo91e2aMuHTMT3QiIAAAAGZSjYmnfaq+s8cpaqbjQK+u8ssELhDu8ILhPqvDWKfeKP/Xm/RLMZwABEWgBcnJyglpTNVrT33tP700fHcw71v6MbhkQzNaD0dPf0zPxGxw9PcG+w+r/OOpiwC3PBMcXvE6hUu25BBI+TwBNQ3lRLOz5JQh+8dMyr1SUVAXFymV7g42kMlhT3ihUYWGszBpvbeM1q/ANTRk/RW+E2gdPeaNyvTemDPYfbQiIQJbr27evTjrppGbwyQKrtKr3VKXMafXghVdeV6/8fsFczOjhZ+v1V14I5pqYAbfonnPn6yuT3fGt0qyvnKJTTrEyVSsm/CFhuH1h8lc0/9x7Gi3UAkihMvB5JRwCre5Pbd4Lg2VeGPRDoSvBfEoWDudo5NxR6tmzp18mzA4WqY8m3SzdZO2T52nE9ELN0E2x9bz5PpMmezEyhoAIZDHrOezSpYsOOuggnXjiifUeEi8bd4X++Oyf9Mz/PZ+w2LLLvXVqa/4Ts9T7ulvUoJlmyXKtOnu4qiLVaA0/+3U12Xw48lzvhZmrz4L5qBc0+Suz4p6P85kefGKFJkxs4MQNoO7Kg1BYGQSDcGiB0J+Gl7lwaMXavJLK4LEa2WeeHpq2IGgIW6aZN02Tv2T2HM3z5uc+F6znzxeof9CJSEAEspjdAPPBBx9o06ZN9R4Szzr7S7rmmq+mHL62ZVd765x11tlBSw2WPKgnVkzQPcm6vQbcomcqh1en+6HIhlKrOtDihoJt/fjetc/mav6qszXcNY8errNff8WLWp7I9sPbDYsfbg7PB/XRVduxbfhDxMF8ZNg3wfOJGqBYPkwcD33h52ND5c+EAraF4d75DRu4AdSd6zH0Q5/rQfTqfg+iTb0S6T20uivefEMbPIWACGQ7uwu7vkPisDPP0q3f/k6ttmPr3HrbZP8xtfHCZBs2TTQ06oWvP5yr+W54dap0nbeSDRmf7dKeF/Z6r5LOHRl7sN/7tnyJX6/ymebOX6Xe+bF1qoaXbfsTtGJqsP2vzFLvqelcd9hLE66T7vCP0Tu2qe/pHt0RHPPr6jVhYhAEEz+fqH7K77VCy1Pkw5Q+W64VvfK9rQBoUlxPoBtSriwuDHpTFyItLPrtoXWqCa4vtN6/Bc9p7rIRujl0PWGdDSqIC4hN/Tp2IA3xbyNT27eVCa/n6jaNL46rxy93JbzM1S28hdsaiu1nwYIFKikp8UNi7969gyXpadO6tcZdNlaXXTJGo6/7sj+1cunY0ZGpK1dcfonKSr0TYa28oMlTEwyNDshXbwtffwh63KaeHbuWMNRLNnp4b81/Yr4lRG8+ee/bZ3Or1sn3EqWfIf3th4aaP3tQT7zeS3GXK9bCKs2648HYkPALr3hbXFV1DP58b/nZNNnzSUvwHF6YrFMuC/btW6Llq4L9AWgytm/bGgt7keHjJCVundVf7A62kswCTTtzspZOmhN3k0odzJ5ODyLQElgv3uDBg9WmTRu/J3HFihXBkvR07NhB3bt3V4e+HXToc4eqc6/O6tatmx8+bWrLwlO3rNZeeESzEt6w8rqmWm+bK3bjhg2x6lyNHDBaw3vP19wXbD5f/QaM9Fq9+US9b+4xo1OskxEJnk9d2fNM2su4nz2QABrED/7zOf1r/tP6YsFzXnlRX3w0T+s+fFWFH72ptR+9qzULP9Cajz/W6kVLtGrRcq38ZK1WfrpBH/9ri6Y9sjHYSthsTeh5pqouO7T52A0qVTepJFon2fwCAiKQ7Swc2rCyBTQLhzbcHH7z73R07dpVPXr00BGtjlCn2zvpsHaH6eCDD/b3YVMrttwVm7fH1N5nevAOG+KdqsqrF2241JurPgxrQ8bSufdcp97+zRw231vDJ+anuLkj9pgJUydUrRNsv/LaxAG36LqEN69Yr1yoZ9GuYQyqdZL0+YTV1APohsUnx66hjL8G0XopVy33tgKgKfnTPyp04Y/LdNJtpTrpOyXedJ9OnrzX+yOxSKd+d49O++5ur+zU6d/briG3b9fQ27d5ZYtGTNmiF9/bF2ylYREQgSxmN4nUdzg0HTt21NixY3XxxRfryrOu9KeujBkzxi+u7to7deoUPLqWPntQd8xaFcyY2B27srd1cTd2BF2M/pBxr6rhZJvvfXbvhMPLjq2zKjz8G2y/99Rg2/71gUHwirC7g2PXFvrrDbd+wHQkfz5VgvAbXFMZExqWfu86Lf/KKUra8dgvX71WLE8SkgEguZyCgr4V7hqo/D75evmll4JFQPOT6Fq++DY3777vw/VwcdcHhq8TLCsrq5x3dSulpaWV81Z3865u1/7ZvE1dm2u36caNG/WTn/zEP5ZDDjlE7dq18+v1wd4H0d7qpr7CITLM7nS+R7ojcm1hbQzQLbEH6kESIlqYoqIibd68OZhLn52f7Y/bDh06aPfu3dq3LzO9d00BPYhAlvv888/1/vvvEw6bK+tJnX+u/pD4PXeSGj39D5qw4gnCIYC0EBCBFsB6PNF8ffbgZXW+geWFyWne9AIAHgIiskZ9haDwdmpbD5dEbclKeF0AAJoKAiIAAAAiCIgAAACIICACAAAggoAIAACACAIiAAAAIgiIAAAAiCAgokUJv51M+G1mwtN41p5oXVfsDajD7e4NqRMtc9P4EmaP4U2tASA9nEPrBx+1h6wRH7SccHu47k4grs3Nh6eu2DpW7OPy3NQts49icvPu4/Xc1H3EntVdSfRxe/Y5yXfffbe/X/tIp/bt2ys3l7/fAKCu7Fy8Z8+eevlYPDtHt9SP2iMgImvY93Ai4fZw3U4ixrW5+fDUFVvHioU9N3XL7ATi5l0YdNN0AmJeXp4/BQCkz87J+8vO0S33s5hzgpqbAgAAoEWLjWERDgEAABDwAmJVF6INhW3cuDGYBwAAQEsUXAUfC4k2tr5kyRK/DgAAgPo3btheffDAJi19dJM+f2STlszcrMUzt2j+T3bo8O77f+1kfYjcJllcXOwFxM+DOQAAANS3W0bvVqe2dpNkrirUyivetKKVenaTfvedInVql/imy0zKtb5DV3bt2qUnn3pSa9eutWVAsxG+OzksWXtN4h9X2+3Yem7d8NQVd1ddeN7VAQAtgwVBPxR6pbwix/sdEAuJ5V5g7NktR+/8fK8Wzdirjx/ap4UPFXulVB89WKo5U8t18ZBgIw0suEnFi4deKSkp1Yb1G/Twww/7zQAAAKhvsR7D8nIvf1k4tJ5Er6hVex3Qa6wOPO1uHXjKVHU99S51O+l76nbizep+wkQNHv513XvnxcE2GlbV29x4rLp9x3bNn/+q7rrrLq2hJxEAAKBetT95pjqe8ZQ6nfF7dRr6uDoP+W91Of0BdTl5mtr2OEEq2SyVbvGmXindLpXtksp3e2WPunSMXB3YYLy95FQOMbv/fbF+vV788591/XXXa9asWXrrrbe4uxkAAKAe5KhY2rfaK2u8slYqLvTKOq9s8ALhDi8I7pMqvHXKveJPvXm/BPMZkNO3X3+7AEp2BZR/HZRf95vUpnVrdezY0f9kh7Zt2yq3VZBaG+hyqdhRNBPN6FCb2cE2qGTX+llreFlNdZumqte1HNWrl/75z3/62+CTVABg/zXlT1Ip/McPvV8YZUEpTTL1ioL5cmtzpUQ9R7wS21Ayg6fojTmT1MerLps5U0snjdTSUWdq2oLoMmmeJvecoNkar1mFN2vpzKWaNGmEvySnnxcQ7Veb/ZLy/lf1i9Kv2y8vvyEWMULThpD+VvfjeNJ86P69Ag3z+iWV4d01luC7s9b87/NaSLRefFt4vrLuTV2ra6u2LJgOHDhQSxYvtpYGCYg5OXYRtDuapshOTtM1Yt5k9ZwwO2gzwUnLndjqwfhZhbp56SidGd7g+FkqHDUnbt9h9X8cdTF4yhuaU/CQd3yKvU5Bu5k3uafCh53w+QEtUJMOiG9P9s7/CUKgvGMuL4m1uVAYrnvh0KY9v/ym155M7HzqJT//3OCfPyZJM/3zV9y5zDv3vdF/une+GBQ7t7hzsNee69+g4omNLsfXc/xfLFaPzcam1pas+A9Os/gPT6fsx7/EG6y5JGiqfcn0P2+n6Rbvf2mWxF/jhiyJjn+/i206Ubsr/j/bffV69VrqloYyaNAgDR06VLm5mbluJX3LtKxgumaND2YbyOw589SnYFAwFzN+1AjNm5MsHDYy76/9GSPnalRlClzmneh7qmfPWInPtLMnjNLckTM0ZXDQAKDpsRBoQ8Vu+LjM6l5b2d5gGl5mQ8uuWJtXUhncXwXLZmp6cG5YMO0hzYtVY8vUR5PmFKqw0CvTR4TOh965xT1o9hz9/43ABzg31B4NAAAAAElFTkSuQmCC;" vertex="1" parent="1">
          <mxGeometry x="1299" y="220" width="648" height="519" as="geometry" />
        </mxCell>
      </root>
    </mxGraphModel>
  </diagram>
</mxfile>
